<?xml version="1.0" encoding="UTF-8" standalone="no"?>
<svg
   xmlns:dc="http://purl.org/dc/elements/1.1/"
   xmlns:cc="http://creativecommons.org/ns#"
   xmlns:rdf="http://www.w3.org/1999/02/22-rdf-syntax-ns#"
   xmlns:svg="http://www.w3.org/2000/svg"
   xmlns="http://www.w3.org/2000/svg"
   viewBox="0 0 24.222761 23.86729"
   height="23.86729"
   width="24.222761"
   version="1.1"
   id="svg3537">
  <metadata
     id="metadata3543">
    <rdf:RDF>
      <cc:Work
         rdf:about="">
        <dc:format>image/svg+xml</dc:format>
        <dc:type
           rdf:resource="http://purl.org/dc/dcmitype/StillImage" />
        <dc:title></dc:title>
      </cc:Work>
    </rdf:RDF>
  </metadata>
  <defs
     id="defs3541" />
  <path
     id="path3547"
     d="M 11.146533,23.836 C 8.0215336,23.509299 5.5127876,22.340401 3.4265496,20.239032 1.6604786,18.460154 0.51938969,16.171094 0.11816609,13.602314 c -0.1252401,-0.801832 -0.1252401,-2.535506 0,-3.337338 0.4012236,-2.5687798 1.54231251,-4.8578398 3.30838351,-6.6367186 1.910435,-1.92429 4.21972,-3.0851061 6.9836514,-3.5104957 0.812388,-0.1250325 2.589971,-0.1250325 3.402359,0 2.763932,0.4253896 5.073217,1.5862057 6.983652,3.5104957 1.766071,1.7788788 2.90716,4.0679388 3.308383,6.6367186 0.12524,0.801832 0.12524,2.535506 0,3.337338 -0.249073,1.59466 -0.778366,3.08287 -1.555761,4.374326 -1.886825,3.134508 -4.999123,5.199999 -8.685493,5.764167 -0.511329,0.07825 -2.284532,0.140385 -2.716808,0.09519 z m -0.52051,-0.902685 c 0.121475,-0.09221 0.111724,-0.157866 -0.04133,-0.278257 -0.136886,-0.107674 -0.276058,-0.09542 -0.276058,0.0243 0,0.03891 -0.04587,0.07074 -0.10193,0.07074 -0.122131,0 -1.0152624,-0.881518 -1.0152624,-1.002061 0,-0.04496 0.03764,-0.123335 0.08365,-0.17417 0.06622,-0.07318 0.07355,-0.12689 0.03518,-0.257905 -0.03889,-0.132787 -0.02531,-0.222969 0.0687,-0.456465 0.136656,-0.339405 0.146088,-0.516052 0.04099,-0.767594 -0.0419,-0.100268 -0.07617,-0.204773 -0.07617,-0.232233 0,-0.02746 0.154249,-0.135394 0.342775,-0.239855 0.188526,-0.10446 0.3567154,-0.210296 0.3737524,-0.235191 0.01704,-0.02489 0.0579,-0.237726 0.09081,-0.472958 0.04689,-0.335168 0.04612,-0.494059 -0.0035,-0.734449 -0.06251,-0.302657 -0.0616,-0.308248 0.06867,-0.418705 0.07261,-0.06157 0.206077,-0.254415 0.296583,-0.428535 0.145192,-0.279328 0.160571,-0.346631 0.130687,-0.57191 -0.01863,-0.14043 -0.04739,-0.290563 -0.06392,-0.333629 -0.01652,-0.04307 -0.238505,-0.18365 -0.493288,-0.312407 -0.3635964,-0.183733 -0.5741564,-0.252874 -0.9786204,-0.321341 -0.4062,-0.06876 -0.564125,-0.120794 -0.745639,-0.24568 -0.12666,-0.08714 -0.243618,-0.200438 -0.259909,-0.251766 -0.01629,-0.05133 -0.08881,-0.125004 -0.161164,-0.163724 -0.07235,-0.03872 -0.220287,-0.194329 -0.328752,-0.345799 -0.153359,-0.214163 -0.273534,-0.314013 -0.54047,-0.449062 -0.212749,-0.107635 -0.411364,-0.171798 -0.522382,-0.168757 -0.141811,0.0039 -0.215284,-0.0324 -0.352736,-0.174218 -0.09549,-0.09852 -0.146279,-0.179125 -0.11287,-0.179125 0.03341,0 0.06074,-0.04962 0.06074,-0.110259 0,-0.06064 0.03705,-0.151199 0.08233,-0.201235 0.12157,-0.134334 0.05335,-0.238288 -0.168363,-0.256563 l -0.193267,-0.01593 -0.014553,-0.253907 c -0.01397,-0.243695 -0.01876,-0.714596 -0.0092,-0.901845 0.01316,-0.256965 -0.382843,-0.540615 -0.771451,-0.552585 -0.12125,-0.0037 -0.257924,-0.03919 -0.30372,-0.07879 -0.0458,-0.0396 -0.137202,-0.06654 -0.203125,-0.05986 -0.06592,0.0067 -0.216748,-0.03206 -0.335166,-0.08607 -0.162537,-0.07415 -0.215401,-0.127005 -0.215791,-0.215797 -0.00121,-0.276362 -0.194533,-0.408569 -0.315109,-0.215496 -0.058428,0.09356 -0.081511,0.08456 -0.455832,-0.177735 -0.271459,-0.190217 -0.443294,-0.276285 -0.551602,-0.276285 -0.210307,0 -0.335714,0.07352 -0.371997,0.218084 -0.02563,0.102116 -0.07559,0.125962 -0.348616,0.166379 -0.318691,0.04718 -0.318702,0.04718 -0.387821,0.265636 -0.04835,0.152809 -0.09359,0.213746 -0.150544,0.202777 -0.278455,-0.05363 -0.145055,-0.945434 0.23582,-1.5765129 0.256007,-0.4241811 0.368172,-0.4845593 0.542441,-0.2919934 0.117979,0.1303657 0.203868,0.1285314 0.298358,-0.00637 0.05688,-0.081201 0.107411,-0.09995 0.204035,-0.075699 0.123625,0.031028 0.128985,0.04886 0.143101,0.4760996 l 0.01466,0.4438657 0.159857,0.01553 c 0.107618,0.01045 0.168295,0.04779 0.185677,0.114258 0.03104,0.118701 0.246972,0.13467 0.337993,0.025 0.07609,-0.09168 0.02439,-0.280757 -0.104836,-0.38343 -0.0918,-0.072945 -0.09257,-0.092969 -0.01737,-0.4536304 0.04327,-0.207524 0.117488,-0.4444206 0.164928,-0.5264372 0.04744,-0.082017 0.280982,-0.2805803 0.518982,-0.4412529 0.496807,-0.3353903 0.533083,-0.3726903 0.58117,-0.5975613 0.01989,-0.093027 0.05802,-0.1514943 0.08708,-0.1335344 0.02843,0.017571 0.18082,-0.093988 0.338643,-0.2479106 0.238583,-0.2326883 0.32662,-0.2854512 0.522312,-0.3130378 0.241656,-0.034066 0.375298,-0.1334501 0.406858,-0.3025651 0.01857,-0.099528 0.0421,-0.1159874 0.360713,-0.2523671 0.181846,-0.077837 0.19043,-0.077161 0.19043,0.014998 0,0.05308 0.02857,0.1066304 0.06348,0.1190008 0.06222,0.022047 0.370814,-0.082785 0.774418,-0.2630755 0.111719,-0.049905 0.266847,-0.1170281 0.344728,-0.1491626 0.113334,-0.046762 0.138678,-0.086344 0.126953,-0.1982737 -0.01287,-0.1228292 8.03e-4,-0.1377986 0.112306,-0.1230085 0.06982,0.00926 0.177566,0.049252 0.239425,0.088868 0.15082,0.096587 0.496478,0.091287 0.651037,-0.00998 0.09694,-0.063514 0.125167,-0.125836 0.125167,-0.276301 0,-0.1068589 -0.02457,-0.2094741 -0.0546,-0.2280337 -0.03519,-0.021753 -0.01662,-0.074172 0.05222,-0.1474515 0.06144,-0.065396 0.09376,-0.1477319 0.07608,-0.1938004 -0.01691,-0.044054 -0.0049,-0.1283532 0.02665,-0.1873308 0.05093,-0.095159 0.04025,-0.1132086 -0.09487,-0.1603121 -0.136957,-0.047743 -0.147329,-0.066061 -0.103169,-0.1822107 0.03151,-0.08288 0.03156,-0.1502563 1.52e-4,-0.1881121 -0.03144,-0.037888 -0.03098,-0.1389607 0.0013,-0.2826182 0.02764,-0.1230006 0.04577,-0.2707799 0.04031,-0.3283986 -0.01584,-0.1668912 0.0576,-0.2824964 0.179468,-0.2824964 0.06197,0 0.166339,-0.057129 0.231936,-0.1269536 0.0656,-0.069825 0.147667,-0.1269537 0.182377,-0.1269537 0.132533,0 0.5285634,-0.2027829 0.5285634,-0.2706451 0,-0.039121 -0.04654,-0.1303013 -0.103434,-0.2026236 -0.08529,-0.1084347 -0.09277,-0.1485711 -0.04262,-0.2288672 0.05015,-0.08031 0.04096,-0.1294919 -0.05248,-0.2806789 -0.06231,-0.1008186 -0.0998,-0.2051315 -0.08331,-0.2318063 0.03231,-0.052279 0.4837184,-0.2730036 0.6830924,-0.3340113 0.102255,-0.03129 0.116459,-0.023032 0.08799,0.051156 -0.0464,0.1209259 0.05415,0.2277792 0.215233,0.2287179 0.203665,0.00119 0.235574,0.051015 0.235273,0.367388 -2.03e-4,0.2248174 -0.0178,0.2923821 -0.07645,0.2936828 -0.14938,0.00331 -0.320217,0.1994877 -0.331196,0.3803171 -0.0058,0.096326 -0.0354,0.2049807 -0.06567,0.2414559 -0.08428,0.1015485 0.04642,0.5564603 0.178896,0.6226662 0.05807,0.02902 0.141996,0.082988 0.186506,0.1199289 0.134906,0.1119618 0.339979,0.017508 0.691626,-0.3185528 0.230869,-0.2206373 0.398763,-0.3353618 0.558596,-0.3816987 0.125684,-0.036437 0.262794,-0.086652 0.304689,-0.1115883 0.258417,-0.1538155 0.44285,-0.2289117 0.519571,-0.2115547 0.04836,0.010941 0.261886,-0.044544 0.474499,-0.123299 0.378512,-0.1402073 0.475775,-0.2252357 0.511776,-0.4474002 0.06625,-0.4088285 0.07357,-0.5842172 0.02778,-0.6660276 -0.04386,-0.078368 -0.02821,-0.1038879 0.09564,-0.1559627 C 14.373977,1.7383711 14.297081,1.5679554 13.964917,1.4974441 13.867167,1.4766931 13.712119,1.3940734 13.620375,1.313845 13.45615,1.1702328 13.443969,1.1679794 12.833262,1.1682355 c -0.55997,2.336e-4 -0.639363,0.011796 -0.816231,0.1188613 -0.219554,0.1329042 -0.419281,0.124074 -0.465188,-0.020567 -0.0163,-0.051348 -0.07988,-0.1087896 -0.141292,-0.1276487 -0.06141,-0.018859 -0.152542,-0.077157 -0.202507,-0.1295513 -0.126446,-0.1325931 -0.190976,-0.1209579 -0.457401,0.082473 -0.128025,0.097754 -0.266865,0.1777351 -0.308533,0.1777351 -0.04167,0 -0.12698,0.071931 -0.189582,0.159846 -0.109893,0.1543315 -0.115212,0.1560834 -0.154166,0.050782 -0.02219,-0.059985 -0.05552,-0.1090645 -0.07407,-0.1090645 -0.09144,0 -0.3846574,0.2278486 -0.4622484,0.3591989 -0.113539,0.1921993 -0.184686,0.1903109 -0.142059,-0.00377 0.04865,-0.2215063 -0.09003,-0.2574728 -0.282339,-0.073226 -0.117408,0.1124844 -0.149313,0.1247446 -0.149313,0.057378 0,-0.078115 -0.05878,-0.1095698 -0.168917,-0.090394 -0.02308,0.00402 -0.203728,0.019326 -0.401439,0.034016 -0.375384,0.027892 -0.69918,0.130712 -0.69918,0.2220208 0,0.029355 -0.07633,0.053373 -0.169625,0.053373 -0.18967,0 -0.791897,0.2797001 -0.801237,0.3721291 -0.0033,0.032732 -0.0016,0.081724 0.0038,0.1088698 0.0054,0.027146 -0.03191,0.013481 -0.08285,-0.030367 -0.192115,-0.1653558 -0.256304,-0.1488352 -0.789337,0.2031554 -3.042235,2.0089491 -4.88824891,5.2524824 -5.05206891,8.8767186 -0.03291,0.728113 -0.03587,0.719182 0.24568201,0.742489 0.0785,0.0065 0.2201429,0.116639 0.3869149,0.300867 0.285108,0.314947 0.407724,0.527413 0.542969,0.940836 0.05369,0.164135 0.116449,0.266602 0.163277,0.266602 0.04183,0 0.165005,0.09538 0.273713,0.211963 0.181756,0.194916 0.20812,0.207192 0.327821,0.152652 0.153989,-0.07016 0.147141,-0.08292 0.240438,0.447889 0.05977,0.340065 0.05706,0.423062 -0.02529,0.774836 -0.09038,0.386082 -0.09021,0.400518 0.0086,0.720555 0.140816,0.45591 0.27775,0.705392 0.479566,0.87373 0.09532,0.07951 0.315859,0.334522 0.490086,0.566697 0.511924,0.682187 0.749694,0.910299 1.193075,1.144606 0.40246,0.212683 0.410437,0.220816 0.854515,0.871267 0.246545,0.361119 0.611662,0.851512 0.811371,1.089763 0.408743,0.487626 1.332047,1.423422 1.404421,1.423422 0.02606,0 0.195702,0.112267 0.376989,0.249483 0.181288,0.137217 0.376737,0.264441 0.434332,0.282721 0.05759,0.01828 0.104718,0.05291 0.104718,0.07695 0,0.09093 0.854748,0.340478 1.3710994,0.400306 0.01397,0.0016 0.06538,-0.02742 0.114259,-0.06452 z M 3.0179106,13.400504 c -0.020932,-0.03387 -0.114173,-0.04596 -0.232259,-0.03012 -0.275032,0.03689 -0.320309,-0.06356 -0.277817,-0.616363 0.03028,-0.393945 0.023306,-0.444911 -0.082093,-0.599868 -0.063352,-0.09314 -0.189453,-0.194054 -0.280225,-0.224254 -0.202084,-0.06723 -0.204466,-0.12154 -0.02539,-0.578981 0.104803,-0.267716 0.14389,-0.32675 0.156646,-0.236589 0.0094,0.06627 0.06061,0.131542 0.114259,0.145571 0.05349,0.01399 0.09726,0.06718 0.09726,0.118195 0,0.118915 0.181556,0.246997 0.304533,0.214837 0.07419,-0.0194 0.08914,-0.003 0.06866,0.07531 -0.01855,0.07092 0.01872,0.132089 0.127808,0.209766 0.176635,0.125775 0.373412,0.104031 0.483715,-0.05345 0.05976,-0.08532 0.09604,-0.09133 0.290809,-0.04822 0.122393,0.02709 0.451048,0.06054 0.730346,0.07434 0.279298,0.0138 0.547806,0.03811 0.596683,0.05403 0.04888,0.01592 0.123145,0.03965 0.165039,0.05274 0.04918,0.01536 0.07617,0.08852 0.07617,0.206464 0,0.100468 0.02329,0.226188 0.05176,0.27938 0.02847,0.05319 0.05922,0.256478 0.06834,0.451746 0.0093,0.198288 0.04661,0.391215 0.08459,0.436987 0.04936,0.05947 0.019,0.05303 -0.110665,-0.02347 -0.124143,-0.07325 -0.293172,-0.111481 -0.553781,-0.125262 -0.363471,-0.01922 -0.380212,-0.02591 -0.540028,-0.215793 -0.140687,-0.167157 -0.178717,-0.187426 -0.258742,-0.137908 -0.06181,0.03825 -0.123213,0.0416 -0.180006,0.0098 -0.142758,-0.07989 -0.598114,0.195229 -0.707157,0.427256 -0.09666,0.205677 -0.115037,0.220278 -0.168455,0.133845 z m 0.257494,-1.873111 c -0.09,-0.03867 -0.08566,-0.04405 0.03809,-0.04721 0.07681,-0.002 0.139649,0.01928 0.139649,0.04721 0,0.0596 -0.03903,0.0596 -0.177735,0 z m -0.29958,-0.135394 c 0.04674,-0.194564 0.07106,-0.21298 0.07106,-0.0538 0,0.07283 -0.02377,0.147109 -0.05282,0.165062 -0.03464,0.02141 -0.04092,-0.01687 -0.01825,-0.111261 z m 4.408743,-5.2145186 c -0.02192,-0.057111 0.0112,-0.1200063 0.09994,-0.1898079 0.07299,-0.057417 0.132714,-0.1484383 0.132714,-0.2022708 0,-0.080046 0.03636,-0.097877 0.199581,-0.097877 l 0.199582,0 -0.04724,0.1647046 c -0.02598,0.090588 -0.04724,0.1733664 -0.04724,0.1839529 0,0.010587 -0.03521,-0.00998 -0.07825,-0.045696 -0.06584,-0.054645 -0.105851,-0.038196 -0.252283,0.1037324 -0.148238,0.143678 -0.178887,0.1560174 -0.206806,0.083262 z m -1.114151,-1.648242 c -0.04951,-0.1030826 -0.110523,-0.2287248 -0.135581,-0.2792049 -0.06749,-0.1359526 0.191676,-0.353437 0.622666,-0.5225299 0.196395,-0.077053 0.368692,-0.1588809 0.382881,-0.1818394 0.03892,-0.062974 0.211694,-0.050063 0.234215,0.017502 0.01086,0.032585 0.09076,0.059245 0.177559,0.059245 l 0.15781,0 -0.153041,0.1904383 c -0.08417,0.1047411 -0.206455,0.2038446 -0.271739,0.22023 -0.06771,0.016995 -0.167443,0.1165185 -0.232176,0.2316944 -0.08066,0.14351 -0.166016,0.2185287 -0.295143,0.25939 -0.09992,0.031618 -0.230214,0.087865 -0.289549,0.1249922 -0.0997,0.062386 -0.114708,0.053292 -0.197902,-0.1199179 z m 2.210089,-0.455394 c 0,-0.022988 0.02462,-0.066412 0.0547,-0.096499 0.03908,-0.039084 0.0086,-0.1072332 -0.106824,-0.2386729 l -0.161527,-0.1839692 0.135211,0 c 0.07437,0 0.122376,0.020769 0.106687,0.046153 -0.01569,0.025384 0.04296,0.1063039 0.130334,0.1798222 0.08737,0.073518 0.150274,0.1396466 0.139785,0.1469519 -0.160256,0.1116079 -0.29837,0.1792902 -0.29837,0.146214 z M 8.0438766,3.433067 c -0.03653,-0.0952 0.06043,-0.2338345 0.163548,-0.2338345 0.0943,0 0.08825,0.036893 -0.03091,0.1883854 -0.08554,0.1087492 -0.105694,0.1156547 -0.132635,0.045449 z m 0.553719,-0.4131744 c 0.197814,-0.174029 0.351364,-0.1727155 0.187599,0.0016 -0.0656,0.069824 -0.1667,0.1262315 -0.224673,0.1253489 -0.09699,-0.00148 -0.09404,-0.011608 0.03707,-0.1269536 z M 17.494216,21.045515 c 0.195509,-0.04391 0.453601,-0.124147 0.573538,-0.178299 0.298149,-0.134615 0.95733,-0.604046 1.201424,-0.855585 0.110405,-0.113772 0.225523,-0.206858 0.255817,-0.206858 0.07499,0 0.500892,-0.443519 0.623139,-0.64891 0.09208,-0.154704 0.697931,-0.669935 0.788966,-0.670955 0.02229,-2.54e-4 -0.03023,0.102379 -0.116697,0.228063 -0.08647,0.125684 -0.176834,0.228517 -0.200803,0.228517 -0.05517,0 -0.398896,0.475744 -0.460181,0.636936 -0.08661,0.227791 0.05958,0.198217 0.28722,-0.05811 0.643928,-0.725058 1.389393,-1.735512 1.389393,-1.883278 0,-0.03666 -0.04338,-0.110031 -0.0964,-0.163049 -0.09467,-0.09468 -0.09386,-0.103973 0.04544,-0.52051 0.164688,-0.49244 0.366765,-0.876906 0.75006,-1.427047 0.16906,-0.242651 0.309118,-0.393557 0.365267,-0.393557 0.07324,0 0.116369,-0.101894 0.22031,-0.52051 0.247803,-0.998008 0.312527,-1.558026 0.312527,-2.704113 0,-1.138801 -0.06604,-1.717474 -0.304707,-2.6699968 C 22.740416,7.6892914 21.973393,6.1487675 20.969095,4.9011488 20.550891,4.3816221 19.779409,3.614468 19.283222,3.2247322 18.918545,2.9382928 18.877918,2.9195699 18.601085,2.9103719 18.302781,2.9004619 17.999846,2.8433889 17.551862,2.7127038 17.227077,2.6179578 17.163896,2.6230488 17.005615,2.7567208 16.818278,2.9149307 16.739387,3.0843825 16.72,3.3701944 c -0.0114,0.1680875 -0.05828,0.3015654 -0.146561,0.4173091 -0.07139,0.093596 -0.121935,0.1886393 -0.112326,0.211207 0.10406,0.2443621 0.397665,0.6273006 0.512593,0.6685547 0.09855,0.035376 0.139649,0.085276 0.139649,0.169567 0,0.065691 0.02313,0.1425727 0.05141,0.1708474 0.03469,0.03469 -0.01696,0.1009345 -0.158826,0.2037009 L 16.795704,5.3636733 16.503749,5.0812608 C 16.343173,4.9259343 16.1975,4.7375298 16.180032,4.6625843 c -0.01747,-0.074945 -0.0753,-0.1500833 -0.128514,-0.1669729 -0.05322,-0.01689 -0.109574,-0.064116 -0.125242,-0.1049475 -0.01619,-0.042183 -0.09393,-0.074239 -0.18004,-0.074239 -0.131869,0 -0.158419,0.024731 -0.204436,0.1904305 -0.02909,0.1047368 -0.05325,0.224708 -0.05368,0.2666027 -4.57e-4,0.041895 -0.09172,0.1143577 -0.202847,0.1610288 l -0.202048,0.084857 0.02288,0.2960043 c 0.01258,0.1628028 0.02376,0.3131434 0.02483,0.3340907 0.0034,0.065777 0.376895,0.03787 0.509767,-0.038086 0.182095,-0.1040949 0.206044,-0.093408 0.12796,0.0571 -0.08407,0.1620432 -0.04992,0.2729799 0.08402,0.2729799 0.0758,0 0.09201,0.02377 0.06793,0.099645 -0.04421,0.1393032 0.05816,0.3066068 0.187609,0.3066068 0.147962,0 0.294206,0.1427457 0.294206,0.2871687 0,0.1368165 0.01674,0.1337101 -0.374852,0.069581 -0.267665,-0.043834 -0.312488,-0.038055 -0.431643,0.055653 -0.125762,0.098904 -0.133344,0.1308207 -0.140005,0.5893809 -0.0059,0.4075827 0.01046,0.5180852 0.102822,0.6936677 0.08628,0.1640201 0.138605,0.2088536 0.243743,0.2088536 0.07363,0 0.149865,0.015862 0.169406,0.035249 0.01954,0.019387 -0.115537,0.1797755 -0.300176,0.3564189 -0.235809,0.2255982 -0.335938,0.3586649 -0.336484,0.4471745 -0.0011,0.1826213 -0.05201,0.2414532 -0.434142,0.5019834 -0.335586,0.2287954 -0.351883,0.2503598 -0.694792,0.9193947 l -0.351145,0.685104 0.08027,0.222206 c 0.112626,0.311776 0.10025,0.528855 -0.04668,0.818814 -0.134081,0.264596 -0.160268,0.430449 -0.07617,0.482424 0.02793,0.01726 0.05078,0.09507 0.05078,0.172898 0,0.0921 0.102308,0.28168 0.292978,0.542904 0.373531,0.511749 0.597962,0.729836 1.074193,1.043827 0.367378,0.242221 0.391811,0.250602 0.587185,0.201398 0.112121,-0.02824 0.464936,-0.06546 0.784032,-0.08271 0.345407,-0.01868 0.637207,-0.06086 0.721115,-0.104254 0.07752,-0.04008 0.206395,-0.07288 0.286399,-0.07288 0.116348,0 0.162488,0.03571 0.230541,0.178415 0.08052,0.168844 0.09551,0.176746 0.279567,0.147315 0.170582,-0.02728 0.205096,-0.01491 0.280789,0.100612 0.08287,0.126476 0.08122,0.141748 -0.04165,0.384202 -0.07037,0.13887 -0.127946,0.289529 -0.127946,0.334799 0,0.04527 0.07318,0.298632 0.162618,0.563027 l 0.162619,0.480718 -0.08491,0.490998 c -0.06099,0.352707 -0.112403,0.512841 -0.182526,0.568549 -0.05369,0.04265 -0.134951,0.151819 -0.180578,0.242591 -0.04563,0.09077 -0.102119,0.16504 -0.125537,0.16504 -0.0806,0 -0.218017,0.451449 -0.184236,0.605251 0.06194,0.282008 -0.407073,1.634013 -0.732502,2.111557 -0.128051,0.187907 -0.134774,0.330035 -0.01562,0.330212 0.04888,5.1e-5 0.24883,-0.03579 0.444338,-0.07971 z m 3.784349,-2.956211 c 6.2e-4,-0.02007 0.04476,-0.09328 0.09809,-0.162687 0.109598,-0.142643 0.191179,-0.113048 0.109432,0.0397 -0.05332,0.09963 -0.209666,0.192292 -0.207522,0.122988 z m 1.827004,-5.06164 c 0,-0.04115 0.0457,-0.09928 0.101563,-0.129171 0.07725,-0.04134 0.101563,-0.03862 0.101563,0.01139 0,0.03616 -0.0457,0.09429 -0.101563,0.12917 -0.08431,0.05265 -0.101563,0.05072 -0.101563,-0.01139 z m -0.374121,-0.908777 c -0.02127,-0.107591 -0.02689,-0.207407 -0.01249,-0.221814 0.03847,-0.03847 0.09422,0.216214 0.07104,0.324549 -0.01199,0.05604 -0.03521,0.0153 -0.05855,-0.102735 z M 19.667343,8.9807342 C 19.577791,8.9253301 19.3607,8.8412685 19.184919,8.7939305 18.91207,8.7204523 18.862701,8.6893948 18.847443,8.5816274 l -0.01787,-0.1262341 0.111584,0.1009825 0.111584,0.100982 0.09228,-0.1139602 c 0.05075,-0.062678 0.108287,-0.2110158 0.127851,-0.3296382 0.01956,-0.118623 0.05742,-0.2427817 0.08413,-0.2759085 0.02671,-0.033126 0.06459,-0.1201489 0.08417,-0.1933829 l 0.03561,-0.1331526 0.207412,0.193383 c 0.114076,0.1063608 0.23438,0.2447992 0.267341,0.3076412 0.03296,0.062842 0.08683,0.1142583 0.119713,0.1142583 0.03288,0 0.106472,0.058555 0.163538,0.1301214 0.0717,0.089914 0.171252,0.1391743 0.322195,0.1594198 0.19305,0.025893 0.221743,0.016672 0.24685,-0.079339 0.01577,-0.060283 0.06913,-0.1086388 0.119897,-0.1086388 0.05032,0 0.127633,-0.01387 0.171812,-0.030824 0.05241,-0.020112 0.08033,-0.00287 0.08033,0.049611 0,0.044239 0.05724,0.117942 0.127208,0.1637844 0.102511,0.067168 0.141946,0.071117 0.203126,0.020344 0.06568,-0.054511 0.07592,-0.028102 0.07592,0.1958494 l 0,0.2588555 -0.152219,-0.030444 c -0.08898,-0.017797 -0.183113,-0.0048 -0.226589,0.031278 -0.05917,0.049106 -0.134447,0.040954 -0.368291,-0.039882 -0.586622,-0.2027856 -0.877908,-0.1883947 -0.877908,0.043372 0,0.1235138 -0.07912,0.1209549 -0.289775,-0.00937 z M 16.643989,8.2342314 c 0.06304,-0.018163 0.196626,-0.098586 0.296853,-0.1787157 0.171323,-0.1369698 0.180297,-0.1586053 0.149886,-0.3613985 -0.0314,-0.2094096 -0.02781,-0.216615 0.123151,-0.2468071 0.123392,-0.024678 0.162028,-0.063743 0.187119,-0.1891965 0.02869,-0.1434292 0.04625,-0.1558692 0.189372,-0.1340915 0.08676,0.013203 0.19523,0.00443 0.241036,-0.019494 0.06963,-0.03637 0.08907,-0.00493 0.118578,0.1918706 0.05181,0.3455111 0.112345,0.473166 0.224372,0.473166 0.262211,0 0.338044,-0.1696924 0.177966,-0.3982364 -0.120402,-0.1718978 -0.04736,-0.1922312 0.136076,-0.037881 0.08832,0.074314 0.232105,0.1735081 0.319529,0.2204312 l 0.158952,0.085314 -0.177159,0.0271 c -0.245459,0.037548 -0.266337,0.1848745 -0.0516,0.3641427 0.104638,0.087356 0.149636,0.1598565 0.12448,0.2005604 -0.02831,0.04581 -0.0506,0.033474 -0.0792,-0.043838 -0.06017,-0.162652 -0.313593,-0.2764726 -0.477133,-0.2142953 -0.07321,0.027835 -0.290717,0.05061 -0.483343,0.05061 -0.23324,0 -0.48234,0.042191 -0.745721,0.1263051 -0.21752,0.069468 -0.429769,0.1243197 -0.471663,0.1218918 -0.0419,-0.00243 -0.02459,-0.019274 0.03845,-0.037438 z m 3.784124,-0.2107593 c 0.0092,-0.1216801 0.0648,-0.1326646 0.107558,-0.021237 0.04337,0.1130122 0.04,0.1228003 -0.04219,0.1228003 -0.04171,0 -0.06974,-0.043543 -0.06537,-0.1015629 z m 0.09776,-0.9750042 c -0.07218,-0.072181 -0.07826,-0.2393041 -0.01248,-0.3432949 0.04005,-0.063313 0.06262,-0.059931 0.154408,0.023137 0.08696,0.078701 0.125523,0.086036 0.201815,0.038391 0.07828,-0.048889 0.130385,-0.032767 0.306572,0.094862 0.217431,0.1575069 0.243113,0.2629693 0.0372,0.1527684 -0.09216,-0.049323 -0.158206,-0.046015 -0.336387,0.016851 -0.266568,0.09405 -0.274,0.094416 -0.35113,0.017286 z M 18.087886,4.6382732 c 0.02525,-0.1610472 0.05519,-0.3020905 0.06653,-0.3134295 0.01134,-0.011339 0.0731,-0.00741 0.13724,0.00874 0.07412,0.018656 0.149007,0.1042795 0.20549,0.2349636 0.04888,0.1130865 0.08887,0.2138719 0.08887,0.2239678 0,0.010096 -0.08569,0.030539 -0.190431,0.04543 -0.104736,0.01489 -0.227148,0.04194 -0.272024,0.06011 -0.07232,0.02928 -0.07637,-2.59e-4 -0.03568,-0.2597769 z m -0.0063,10.8990698 c 0.124562,-0.06667 0.137711,-0.378447 0.0179,-0.424423 -0.208771,-0.08011 -0.47827,0.0376 -0.47827,0.208902 0,0.23232 0.228822,0.339442 0.460372,0.215521 z M 14.415166,3.8018397 C 14.717398,3.6762373 14.756183,3.5463174 14.54943,3.3520829 14.45126,3.2598599 14.374668,3.2361481 14.206655,3.245969 c -0.240308,0.014047 -0.283659,0.013892 -0.394095,-0.0014 -0.328692,-0.045527 -0.491336,0.08117 -0.331264,0.258048 0.04802,0.053059 0.07389,0.118174 0.0575,0.1446991 -0.03727,0.060301 0.051,0.1318196 0.248374,0.2012521 0.229005,0.080558 0.34194,0.072155 0.627997,-0.046724 z M 16.29305,2.2052746 C 16.472729,2.1156386 16.487062,2.0707687 16.37702,1.9423913 16.084151,1.6007106 16.106788,1.6121789 15.800527,1.6503341 15.29475,1.7133461 15.218516,1.8481097 15.59475,2.0141038 c 0.109056,0.048115 0.198283,0.1040317 0.198283,0.124259 0,0.03125 0.214559,0.1302149 0.309582,0.1427943 0.01666,0.00221 0.10235,-0.031942 0.190431,-0.075883 z"
     style="fill:#eeeeee;fill-opacity:1" />
</svg>
